<svg data-v-423bf9ae="" xmlns="http://www.w3.org/2000/svg" viewBox="0 0 268.0519538425158 60" class="font"><!----><!----><!----><g data-v-423bf9ae="" id="c0b8ae48-a847-41a7-8e49-f63c70fff651" fill="white" transform="matrix(5.5658628465905124,0,0,5.5658628465905124,-6.233769896762766,-10.909091868475379)"><path d="M7.44 4.13L7.44 2.10L1.12 2.10L1.12 12.60L7.44 12.60L7.44 10.57L3.43 10.57L3.43 8.37L6.86 8.37L6.86 6.34L3.43 6.34L3.43 4.13ZM16.73 2.10L16.73 9.05L11.57 2.10L9.19 2.10L9.19 12.60L11.50 12.60L11.50 5.64L16.64 12.60L19.02 12.60L19.02 2.10ZM27.16 2.10L21.40 2.10L21.40 4.15L24.85 4.15L24.85 9.61C24.85 10.24 24.40 10.71 23.82 10.71C23.29 10.71 22.89 10.33 22.80 9.78L20.53 10.45C20.76 11.87 21.89 12.74 23.82 12.74C25.97 12.74 27.16 11.64 27.16 9.91ZM34.07 12.74C37.07 12.74 39.46 10.33 39.46 7.35C39.46 4.38 37.07 1.96 34.07 1.96C31.10 1.96 28.68 4.38 28.68 7.35C28.68 10.33 31.10 12.74 34.07 12.74ZM34.07 10.48C32.31 10.48 30.96 9.12 30.96 7.35C30.96 5.58 32.31 4.22 34.07 4.22C35.86 4.22 37.21 5.58 37.21 7.35C37.21 9.12 35.86 10.48 34.07 10.48ZM49.28 2.10L46.71 2.10L44.47 5.65L42.23 2.10L39.62 2.10L43.31 7.67L43.31 12.60L45.62 12.60L45.62 7.65Z"></path></g><!----><!----></svg>