<svg data-v-423bf9ae="" xmlns="http://www.w3.org/2000/svg" viewBox="0 0 546.0054408899803 60" class="font"><!----><!----><!----><g data-v-423bf9ae="" id="f67b9974-5385-49c5-84df-c62b6fccd66c" fill="white" transform="matrix(5.459508757923784,0,0,5.459508757923784,-6.33303042359131,-15.286624500275508)"><path d="M1.16 13.78L1.16 2.80L6.57 2.80L6.57 4.30L2.88 4.30L2.88 7.54L6.11 7.54L6.11 9.04L2.88 9.04L2.88 12.28L6.57 12.28L6.57 13.78L1.16 13.78ZM14.14 2.80L15.79 2.80L15.79 13.78L13.39 13.78L9.82 4.40L9.93 6.54L9.93 13.78L8.27 13.78L8.27 2.80L10.66 2.80L14.24 12.14L14.14 9.82L14.14 2.80ZM19.26 13.78L19.26 4.29L16.86 4.29L16.86 2.80L23.35 2.80L23.35 4.29L20.97 4.29L20.97 13.78L19.26 13.78ZM24.42 13.78L24.42 2.80L29.84 2.80L29.84 4.30L26.15 4.30L26.15 7.54L29.38 7.54L29.38 9.04L26.15 9.04L26.15 12.28L29.84 12.28L29.84 13.78L24.42 13.78ZM38.42 13.79L36.57 13.79L34.53 9.65L34.34 9.65L33.26 9.65L33.26 13.78L31.54 13.78L31.54 2.80L34.49 2.80Q35.56 2.80 36.34 3.21Q37.11 3.62 37.52 4.40Q37.93 5.18 37.93 6.27L37.93 6.27Q37.93 7.39 37.45 8.18Q36.97 8.97 36.07 9.34L36.07 9.34L38.42 13.79ZM33.26 4.22L33.26 8.29L34.30 8.29Q36.25 8.29 36.25 6.28L36.25 6.28Q36.25 5.30 35.77 4.76Q35.29 4.22 34.38 4.22L34.38 4.22L33.26 4.22ZM40.84 13.78L40.84 4.29L38.45 4.29L38.45 2.80L44.94 2.80L44.94 4.29L42.55 4.29L42.55 13.78L40.84 13.78ZM50.24 13.78L49.72 11.52L46.46 11.52L45.94 13.78L44.17 13.78L46.97 2.80L49.21 2.80L52.00 13.78L50.24 13.78ZM46.77 10.12L49.41 10.12L48.25 4.99L48.14 4.12L48.09 4.12L47.95 4.99L46.77 10.12ZM53.40 13.78L53.40 2.80L55.10 2.80L55.10 13.78L53.40 13.78ZM63.27 2.80L64.93 2.80L64.93 13.78L62.53 13.78L58.96 4.40L59.06 6.54L59.06 13.78L57.41 13.78L57.41 2.80L59.79 2.80L63.38 12.14L63.27 9.82L63.27 2.80ZM67.24 13.78L67.24 2.80L70.01 2.80L71.95 11.98L73.90 2.80L76.67 2.80L76.67 13.78L74.95 13.78L74.94 7.20L75.05 4.24L74.98 4.24L72.76 13.78L71.15 13.78L68.92 4.24L68.85 4.24L68.97 7.18L68.95 13.78L67.24 13.78ZM78.98 13.78L78.98 2.80L84.39 2.80L84.39 4.30L80.70 4.30L80.70 7.54L83.93 7.54L83.93 9.04L80.70 9.04L80.70 12.28L84.39 12.28L84.39 13.78L78.98 13.78ZM91.96 2.80L93.61 2.80L93.61 13.78L91.21 13.78L87.64 4.40L87.75 6.54L87.75 13.78L86.09 13.78L86.09 2.80L88.48 2.80L92.06 12.14L91.96 9.82L91.96 2.80ZM97.08 13.78L97.08 4.29L94.68 4.29L94.68 2.80L101.17 2.80L101.17 4.29L98.79 4.29L98.79 13.78L97.08 13.78Z"></path></g><!----><!----></svg>